<svg xmlns="http://www.w3.org/2000/svg" xmlns:xlink="http://www.w3.org/1999/xlink" width="18" height="18" viewBox="0 0 18 18">
    <defs>
        <path id="4y3rbyu64a" d="M12.5 11h-.79l-.28-.27C12.41 9.59 13 8.11 13 6.5 13 2.91 10.09 0 6.5 0S0 2.91 0 6.5 2.91 13 6.5 13c1.61 0 3.09-.59 4.23-1.57l.27.28v.79l5 4.99L17.49 16l-4.99-5zm-6 0C4.01 11 2 8.99 2 6.5S4.01 2 6.5 2 11 4.01 11 6.5 8.99 11 6.5 11z"/>
    </defs>
    <g fill="none" fill-rule="evenodd">
        <g>
            <g>
                <g>
                    <g>
                        <g transform="translate(-1139.000000, -656.000000) translate(82.000000, 631.000000) translate(16.000000, 16.000000) translate(571.000000, 0.000000) translate(470.000000, 9.000000)">
                            <use fill="#9B9B9B" xlink:href="#4y3rbyu64a"/>
                        </g>
                    </g>
                </g>
            </g>
        </g>
    </g>
</svg>
